<?xml version="1.0" standalone="no"?>
<!DOCTYPE svg PUBLIC "-//W3C//DTD SVG 20010904//EN"
 "http://www.w3.org/TR/2001/REC-SVG-20010904/DTD/svg10.dtd">
<svg version="1.0" xmlns="http://www.w3.org/2000/svg"
 width="400.000000pt" height="400.000000pt" viewBox="0 0 400.000000 400.000000"
 preserveAspectRatio="xMidYMid meet">
<metadata>
Created by potrace 1.11, written by Peter Selinger 2001-2013
</metadata>
<g transform="translate(0.000000,400.000000) scale(0.100000,-0.100000)"
fill="#000000" stroke="none">
<path d="M1430 3973 c-8 -2 -22 -7 -30 -10 -10 -3 -6 -8 15 -17 52 -22 91 -63
123 -129 27 -53 32 -75 31 -128 -2 -111 -6 -119 -79 -159 -35 -19 -96 -65
-135 -102 l-71 -67 -69 9 c-39 5 -92 9 -119 10 l-49 0 7 48 c11 82 34 136 76
177 22 22 40 43 40 47 0 19 -31 5 -65 -29 -44 -45 -81 -114 -99 -186 l-13 -52
-84 -8 c-145 -13 -319 -68 -384 -122 l-20 -17 20 7 c103 34 230 55 325 55 58
0 110 -4 116 -8 7 -4 13 -50 16 -114 l4 -108 -66 -34 c-125 -66 -236 -96 -353
-96 -70 0 -121 21 -144 61 -36 60 -65 25 -38 -46 19 -48 15 -66 -8 -46 -23 19
-40 -10 -27 -45 19 -50 98 -151 166 -212 l67 -60 -31 -16 c-46 -24 -126 -107
-182 -192 -51 -75 -95 -164 -82 -164 4 0 27 14 52 31 48 32 181 102 216 113
20 6 20 4 16 -164 -5 -181 6 -257 49 -355 24 -54 39 -58 39 -11 l0 35 55 -55
c30 -30 67 -72 82 -92 15 -20 33 -42 41 -49 12 -10 11 -17 -6 -45 -95 -158 57
-358 321 -423 68 -17 86 -18 159 -7 l81 12 45 -30 c25 -17 54 -30 65 -30 27 0
85 -37 125 -80 33 -34 34 -37 28 -98 -6 -67 -32 -138 -60 -161 -14 -12 -28 -8
-112 33 -92 44 -134 56 -134 37 0 -24 93 -73 421 -221 241 -110 293 -131 385
-154 84 -22 146 -21 174 2 26 21 20 42 -11 42 -10 0 -19 6 -19 13 0 7 -33 36
-72 64 -40 28 -102 81 -138 117 l-65 67 -3 98 c-5 137 -5 137 117 143 77 4
107 10 135 26 20 12 62 29 94 38 147 43 273 116 365 213 78 81 87 107 87 243
1 90 3 109 12 93 61 -106 90 -121 63 -31 -18 60 -19 96 -3 131 l12 26 17 -22
17 -22 24 39 c14 21 28 49 32 60 5 15 20 25 53 34 67 16 183 73 218 107 37 35
80 93 68 93 -4 0 -26 -11 -48 -25 -28 -17 -55 -24 -91 -25 -66 0 -89 17 -81
58 10 48 -9 128 -50 215 -29 63 -34 80 -23 87 7 4 21 5 31 2 34 -13 128 -102
160 -153 19 -28 35 -46 37 -39 10 28 -15 69 -80 137 -59 61 -68 73 -49 73 12
0 41 10 64 21 48 25 137 96 137 110 0 23 -33 20 -58 -4 -45 -43 -130 -77 -194
-77 -112 0 -78 31 122 109 141 56 200 73 248 73 41 0 66 22 52 48 -14 25 -97
97 -147 127 -24 14 -43 29 -43 34 0 10 31 25 73 33 50 11 30 33 -51 55 -57 15
-108 21 -186 21 l-108 0 30 34 c64 74 112 262 111 436 -2 137 -8 174 -32 178
-15 3 -17 -6 -18 -65 -2 -112 -23 -149 -31 -53 -2 27 -7 35 -22 35 -15 0 -22
-11 -31 -53 -12 -54 -20 -65 -90 -141 -43 -47 -109 -81 -156 -81 -39 0 -37 13
11 68 83 93 150 239 150 324 0 31 -15 45 -27 24 -4 -7 -17 -16 -28 -19 -18 -4
-18 -5 3 -6 12 0 22 -7 22 -16 0 -16 -30 -95 -36 -95 -3 0 -22 11 -44 25 -34
22 -128 52 -210 69 -14 3 0 3 30 1 30 -3 80 -11 110 -19 30 -8 57 -13 59 -10
10 10 -118 57 -197 73 -64 13 -79 19 -57 22 22 3 31 10 33 27 3 21 0 22 -61
22 -83 0 -232 -30 -322 -65 -172 -67 -171 -66 -339 -71 -89 -2 -168 -7 -177
-10 -13 -4 -19 8 -29 60 -22 119 -106 264 -176 305 -34 20 -63 25 -94 14z
m417 -439 c-43 -22 -167 -66 -167 -59 0 1 7 19 15 38 16 40 27 43 135 45 l65
1 -48 -25z m981 -40 c28 -4 52 -10 52 -13 0 -16 -79 -85 -144 -125 l-71 -44
-85 28 c-64 22 -91 37 -109 60 -13 17 -22 33 -19 35 3 3 31 14 62 25 98 35
206 46 314 34z m-1348 -53 c-27 -51 -100 -110 -100 -82 0 8 99 101 108 101 1
0 -2 -9 -8 -19z m1115 -149 c-3 -3 -11 0 -18 7 -9 10 -8 11 6 5 10 -3 15 -9
12 -12z m-1496 -57 c-12 -19 -23 -35 -25 -35 -2 0 -4 16 -4 35 0 31 3 35 25
35 l24 0 -20 -35z m624 -537 c9 -35 22 -106 27 -158 24 -225 67 -367 181 -594
l80 -159 -22 -23 c-11 -12 -34 -28 -50 -34 -30 -13 -41 -50 -14 -50 28 0 126
49 166 83 22 19 55 55 75 79 l35 46 52 -28 c91 -49 258 -90 283 -70 10 9 22 9
45 1 40 -14 69 -14 69 -1 0 5 -11 12 -25 16 -42 10 -21 16 30 8 l47 -7 -8 -36
c-10 -47 -13 -101 -7 -101 3 0 11 8 18 17 7 9 21 17 31 18 18 1 19 -8 21 -122
2 -68 0 -123 -4 -123 -3 0 -32 29 -65 64 -32 36 -68 68 -79 71 -16 5 -19 13
-15 30 3 13 2 27 -4 30 -6 4 -10 -6 -10 -24 0 -24 16 -48 75 -113 41 -45 75
-90 75 -99 0 -10 -32 -47 -72 -84 -111 -103 -217 -148 -523 -220 -60 -15 -119
-30 -131 -35 -29 -11 -42 -67 -46 -195 -3 -107 -2 -110 21 -121 13 -7 53 -41
90 -76 36 -36 90 -82 120 -103 30 -22 49 -41 43 -43 -17 -5 -156 35 -231 67
-66 28 -207 93 -308 141 l-53 25 30 43 c37 55 53 133 44 211 -4 41 -3 65 5 75
18 22 -8 40 -100 70 -45 15 -115 42 -156 61 -66 32 -77 34 -115 25 -73 -16
-148 -12 -233 15 -145 47 -242 138 -252 237 -5 53 22 113 52 113 10 0 33 14
50 32 16 17 44 34 60 37 26 6 38 0 83 -40 29 -25 66 -66 83 -90 19 -28 37 -44
51 -44 19 0 20 4 16 100 -2 55 -1 100 3 100 4 0 12 -7 20 -16 16 -19 83 -54
104 -54 17 0 20 11 5 26 -20 20 -61 151 -71 226 l-10 80 34 51 c19 29 63 100
98 159 35 59 65 105 67 103 2 -2 -2 -31 -9 -64 -25 -128 26 -75 94 97 26 64
51 135 57 158 7 28 18 44 35 52 30 14 33 32 5 32 -15 0 -20 7 -20 26 0 39 22
164 29 164 3 0 14 -28 24 -62z m127 -380 c23 -121 24 -123 5 -81 -12 29 -56
211 -55 230 1 5 7 -4 15 -19 8 -14 24 -73 35 -130z m694 28 c31 -117 54 -170
107 -252 36 -56 39 -65 39 -133 0 -66 -2 -72 -17 -66 -10 5 -58 22 -107 40
-92 33 -99 39 -111 93 -6 29 -4 32 18 32 14 0 56 -16 93 -35 75 -38 96 -43 88
-20 -9 23 -142 85 -181 85 -33 0 -35 2 -30 28 3 15 14 58 26 97 11 38 26 107
32 152 7 46 13 82 14 81 2 -2 15 -47 29 -102z m535 -214 c1 -26 -3 -41 -9 -37
-5 3 -10 34 -9 68 1 46 3 56 9 37 4 -14 8 -44 9 -68z m-991 -189 c-9 -56 -27
-104 -28 -74 0 27 24 131 30 131 4 0 3 -25 -2 -57z"/>
<path d="M1527 2086 c-43 -13 -86 -31 -95 -40 -22 -22 -13 -21 124 14 66 16
129 30 142 30 12 0 22 5 22 10 0 18 -113 10 -193 -14z"/>
<path d="M1575 1983 c-126 -29 -210 -66 -201 -89 3 -9 6 -20 6 -26 0 -6 22 -7
58 -4 42 5 51 4 35 -4 -23 -9 -32 -30 -13 -30 5 0 54 12 107 26 54 14 136 30
182 34 62 5 86 11 93 23 5 10 16 17 24 17 10 0 14 8 12 23 -2 15 -11 23 -30
25 -14 2 -32 10 -38 18 -18 21 -108 16 -235 -13z"/>
<path d="M1795 1739 c-48 -25 -71 -46 -62 -55 8 -9 120 50 125 65 6 17 -20 13
-63 -10z"/>
<path d="M1608 1690 c-2 -22 0 -47 4 -57 4 -10 7 6 7 40 1 66 -5 76 -11 17z"/>
<path d="M1553 1660 c0 -25 2 -35 4 -22 2 12 2 32 0 45 -2 12 -4 2 -4 -23z"/>
<path d="M1669 1652 c5 -34 6 -35 9 -8 2 16 0 32 -5 37 -5 5 -7 -7 -4 -29z"/>
<path d="M2455 1637 c2 -27 10 -56 15 -65 8 -13 9 -5 4 28 -10 67 -26 97 -19
37z"/>
<path d="M2521 1658 c0 -13 4 -41 8 -63 9 -40 9 -40 10 17 0 31 -3 60 -9 63
-6 3 -10 -4 -9 -17z"/>
<path d="M1481 1634 c0 -11 3 -14 6 -6 3 7 2 16 -1 19 -3 4 -6 -2 -5 -13z"/>
<path d="M974 1600 c-25 -10 -64 -57 -64 -77 0 -18 33 -30 38 -14 11 33 44 53
75 47 46 -9 55 -23 29 -42 -32 -22 -30 -73 6 -106 36 -36 72 -48 138 -48 84 0
66 28 -32 50 -58 13 -94 35 -94 56 0 12 9 15 42 12 56 -4 63 21 17 68 -53 55
-107 74 -155 54z"/>
<path d="M1480 1529 c-35 -17 -66 -26 -68 -21 -1 5 -9 18 -17 28 -19 27 -31
10 -16 -23 12 -25 10 -29 -28 -61 -23 -18 -41 -40 -41 -48 0 -20 4 -18 55 21
26 19 52 32 60 29 9 -4 15 0 15 9 0 9 25 30 55 47 30 17 55 36 55 41 0 12 4
13 -70 -22z"/>
<path d="M2115 1463 c-11 -3 -24 -9 -29 -14 -12 -11 11 -39 33 -39 26 0 61 29
55 45 -6 15 -21 17 -59 8z"/>
<path d="M480 3269 c0 -5 5 -7 10 -4 6 3 10 8 10 11 0 2 -4 4 -10 4 -5 0 -10
-5 -10 -11z"/>
<path d="M3280 1430 c-23 -23 -26 -40 -7 -40 16 0 47 32 47 48 0 18 -18 14
-40 -8z"/>
<path d="M3135 1410 c-9 -14 57 -52 69 -40 6 6 3 17 -9 30 -19 21 -50 27 -60
10z"/>
<path d="M3310 1306 c0 -22 29 -41 42 -28 8 8 8 15 -2 27 -16 19 -40 20 -40 1z"/>
<path d="M3149 1291 c-17 -14 -21 -23 -13 -31 8 -8 18 -5 37 10 15 12 27 26
27 31 0 15 -26 10 -51 -10z"/>
<path d="M2910 1105 c-17 -21 -18 -89 -1 -109 21 -25 66 -20 90 10 27 35 28
90 2 104 -29 15 -77 12 -91 -5z m73 -31 c3 -3 1 -17 -5 -30 -15 -32 -42 -27
-46 9 -3 23 0 27 21 27 13 0 26 -3 30 -6z"/>
<path d="M1302 903 c-5 -10 -15 -36 -22 -58 -20 -62 -74 -139 -163 -234 -172
-181 -253 -305 -329 -501 -43 -108 -43 -110 -15 -110 21 0 28 9 47 62 35 98
89 218 111 247 100 132 154 198 221 268 42 46 93 106 113 135 38 58 80 170 71
193 -7 20 -23 19 -34 -2z"/>
<path d="M2280 652 c0 -14 31 -37 103 -77 117 -65 236 -165 266 -225 10 -19
24 -60 31 -90 7 -30 19 -64 26 -75 6 -11 23 -57 35 -102 21 -73 27 -83 46 -83
29 0 29 9 -5 111 -16 46 -37 119 -46 161 -22 101 -59 155 -164 239 -120 96
-292 179 -292 141z"/>
</g>
</svg>
